<svg width="64" height="64" viewBox="0 0 64 64" fill="none" xmlns="http://www.w3.org/2000/svg">
<path d="M58.5542 19.545C57.8183 18.8661 56.9538 18.3417 56.0116 18.0028C55.0695 17.6639 54.0688 17.5174 53.0692 17.572C52.0695 17.6266 51.0908 17.8812 50.1911 18.3207C49.2916 18.7602 48.4891 19.3757 47.8316 20.1307C44.0869 24.0689 41.1744 25.5344 37.7053 25.386C32.8608 25.1766 30.4704 21.4319 27.9819 16.704C27.0082 14.4502 25.4054 12.5248 23.3653 11.1584C21.3254 9.79208 18.935 9.04269 16.4801 9C14.7713 9.01182 13.0829 9.37203 11.518 10.0586C9.95303 10.7452 8.54474 11.7438 7.37866 12.9932C6.21285 14.2426 5.31418 15.7167 4.73724 17.3253C4.16056 18.934 3.91807 20.6433 4.02434 22.3489C4.11948 26.5514 5.37248 30.6461 7.64553 34.1819C9.91858 37.718 13.1232 40.5579 16.9068 42.3895C21.1272 44.5072 25.7703 45.6476 30.4916 45.726C30.1725 48.5938 29.5505 51.4194 28.6365 54.1562H37.549C36.597 51.3309 35.9634 48.4083 35.6594 45.4425C48.7141 43.749 54.9102 37.8126 58.3078 32.1625C59.7436 29.9689 60.5495 27.4232 60.6373 24.803C60.664 23.8326 60.4952 22.8668 60.1411 21.9631C59.7868 21.0593 59.2544 20.2361 58.5754 19.5424M16.5411 26.3215C15.639 26.3843 14.7384 26.1777 13.9537 25.728C13.169 25.2783 12.5354 24.6057 12.1336 23.7955C11.7316 22.9853 11.5794 22.074 11.696 21.1772C11.8127 20.2803 12.1932 19.4383 12.789 18.7579C13.3847 18.0775 14.1692 17.5894 15.0429 17.3555C15.9164 17.1215 16.84 17.1522 17.696 17.4438C18.5523 17.7353 19.3026 18.2746 19.8517 18.9931C20.4011 19.7116 20.7246 20.577 20.7814 21.4796C20.8577 22.6832 20.4546 23.8681 19.6601 24.7753C18.8655 25.6826 17.7443 26.2385 16.5411 26.3215Z" fill="#6DB329"/>
</svg>
